<svg viewBox="-8 0 30 19" xmlns="http://www.w3.org/2000/svg" class="cf-icon-svg">
    <g id="SVGRepo_bgCarrier" stroke-width="0"></g>
    <g id="SVGRepo_tracerCarrier" stroke-linecap="round" stroke-linejoin="round"></g>
    <g id="SVGRepo_iconCarrier">
        <path d="M7.181 15.129a1.81 1.81 0 0 0 .223.872H1.85a1.27 1.27 0 0 1-1.267-1.267v-1.9A3.176 3.176 0 0 1 3.75 9.667h5.478a3.177 3.177 0 0 0 .557 1.067 3.135 3.135 0 0 0-2.604 3.086zM6.6 8.717a3.236 3.236 0 1 1 3.236-3.236A3.236 3.236 0 0 1 6.6 8.717zm9.817 6.412a.875.875 0 0 1-.872.872H9.003a.875.875 0 0 1-.872-.872V13.82a2.187 2.187 0 0 1 2.18-2.18h3.925a2.187 2.187 0 0 1 2.18 2.18zm-1.915-6.372a2.228 2.228 0 1 1-2.228-2.228 2.228 2.228 0 0 1 2.228 2.228z"></path>
    </g>

    <g id="SVGRepo_bgCarrier" stroke-width="0"></g>
    <g id="SVGRepo_tracerCarrier" stroke-linecap="round" stroke-linejoin="round"></g>
    <g id="SVGRepo_iconCarrier" transform="scale(0.5) translate(-15,-2)">
        <path d="M6 12H18M18 12L13 7M18 12L13 17" stroke="#000000" stroke-width="2" stroke-linecap="round"
              stroke-linejoin="round"></path>
    </g>
</svg>

